<svg xmlns="http://www.w3.org/2000/svg" viewBox="0 0 60 60">
  <path d="M12.7416,30c0,1.2375,0.1329,2.4667,0.3986,3.671c0.0831,0.382,0.4153,0.6478,0.8057,0.6478h0.0082c0.3904,0,0.7227-0.2741,0.8057-0.6561c1.4783-6.8436,7.4664-11.8766,14.4097-12.2586v2.3504c0,0.3322,0.1993,0.6395,0.515,0.764c0.3073,0.1329,0.6644,0.0582,0.9053-0.1744l6.8436-6.8519c0.1578-0.1578,0.2408-0.3655,0.2408-0.5897c0-0.2159-0.0831-0.4236-0.2408-0.5814l-6.8436-6.8435c-0.2408-0.2326-0.598-0.3073-0.9053-0.1744c-0.3156,0.1246-0.515,0.4319-0.515,0.764v2.6992C20.0336,13.1979,12.7416,20.764,12.7416,30z"/>
  <path d="M30.8305,49.9323v-2.6992c9.1275-0.4319,16.4279-7.998,16.4279-17.2335c0-1.2375-0.1329-2.475-0.3986-3.671c-0.0831-0.382-0.4236-0.6478-0.814-0.6478c-0.3903,0-0.7226,0.274-0.8056,0.6561c-1.4784,6.8436-7.4664,11.8765-14.4097,12.2586v-2.3504c0-0.3322-0.1993-0.6395-0.515-0.7641c-0.3073-0.1329-0.6644-0.0581-0.9052,0.1744l-6.8436,6.8519c-0.1578,0.1578-0.2492,0.3655-0.2492,0.5897c0,0.2159,0.0914,0.4236,0.2492,0.5814l6.8436,6.8436C29.5681,50.6797,29.7841,50.7628,30,50.7628c0.108,0,0.2159-0.0165,0.3156-0.0664C30.6312,50.5718,30.8305,50.2645,30.8305,49.9323z"/>
</svg>
